<svg width="16" height="16" fill="none" xmlns="http://www.w3.org/2000/svg">
  <g clip-path="url(#a)">
    <path d="M15.85 14.719.9.109A.38.38 0 0 0 .762.02a.324.324 0 0 0-.305.043.438.438 0 0 0-.119.126l-.25.39A.553.553 0 0 0 .016.75a.62.62 0 0 0 .034.38.49.49 0 0 0 .1.15l14.95 14.61a.38.38 0 0 0 .139.09.324.324 0 0 0 .304-.043.438.438 0 0 0 .12-.126l.25-.39a.554.554 0 0 0 .072-.173.622.622 0 0 0-.034-.38.492.492 0 0 0-.1-.15ZM7.42 4.577l3.37 3.293C10.734 5.997 9.512 4.5 8 4.5c-.195 0-.39.026-.58.077Zm1.16 6.846L5.21 8.13C5.267 10.003 6.489 11.5 8 11.5c.195 0 .39-.026.58-.077ZM8 3.5c2.466 0 4.727 1.719 5.948 4.5-.299.684-.669 1.317-1.1 1.881l.944.922c.525-.702.97-1.492 1.322-2.347a1.221 1.221 0 0 0 0-.912C13.758 4.237 11.075 2 8 2c-.917 0-1.793.219-2.616.588l1.16 1.134A5.324 5.324 0 0 1 8 3.5Zm0 9c-2.466 0-4.727-1.719-5.948-4.5a9.11 9.11 0 0 1 1.101-1.88l-.943-.923C1.685 5.9 1.24 6.69.887 7.544A1.221 1.221 0 0 0 .801 8c0 .159.03.315.086.456C2.243 11.763 4.927 14 8 14c.918 0 1.793-.22 2.616-.588l-1.16-1.134A5.332 5.332 0 0 1 8 12.5Z" fill="#000" fill-opacity=".35"/>
  </g>
  <defs>
    <clipPath id="a">
      <path fill="#fff" d="M0 0h16v16H0z"/>
    </clipPath>
  </defs>
</svg>
