<svg width="28" height="28" viewBox="0 0 28 28" fill="none" xmlns="http://www.w3.org/2000/svg">
<path d="M12.5538 19.0984C12.0638 19.0984 11.6088 18.9817 11.2005 18.7484C10.2671 18.2117 9.73047 17.115 9.73047 15.7267V12.2734C9.73047 10.8967 10.2671 9.78835 11.2005 9.25168C12.1338 8.71502 13.3471 8.79668 14.5488 9.49668L17.5471 11.2233C18.7371 11.9117 19.4255 12.9267 19.4255 14C19.4255 15.0733 18.7371 16.0883 17.5471 16.7767L14.5488 18.5033C13.8721 18.9 13.1838 19.0984 12.5538 19.0984ZM12.5655 10.6517C12.3788 10.6517 12.2155 10.6867 12.0871 10.7683C11.7138 10.99 11.4921 11.5384 11.4921 12.2734V15.7267C11.4921 16.4617 11.7021 17.01 12.0871 17.2317C12.4605 17.4534 13.0438 17.36 13.6855 16.9867L16.6838 15.26C17.3255 14.8867 17.6871 14.4317 17.6871 14C17.6871 13.5683 17.3255 13.1017 16.6838 12.74L13.6855 11.0133C13.2655 10.7683 12.8805 10.6517 12.5655 10.6517Z" fill="#0067DF"/>
<path d="M13.9997 26.5418C7.08134 26.5418 1.45801 20.9185 1.45801 14.0002C1.45801 7.08183 7.08134 1.4585 13.9997 1.4585C20.918 1.4585 26.5413 7.08183 26.5413 14.0002C26.5413 20.9185 20.918 26.5418 13.9997 26.5418ZM13.9997 3.2085C8.04967 3.2085 3.20801 8.05016 3.20801 14.0002C3.20801 19.9502 8.04967 24.7918 13.9997 24.7918C19.9497 24.7918 24.7913 19.9502 24.7913 14.0002C24.7913 8.05016 19.9497 3.2085 13.9997 3.2085Z" fill="#0067DF"/>
</svg>
