<svg width="435" height="384" viewBox="0 0 435 384" fill="none" xmlns="http://www.w3.org/2000/svg">
<g clip-path="url(#clip0_1_10447)">
<rect width="435" height="384" rx="10" fill="white"/>
<path d="M435 314.642H-0.268311V314.859H435V314.642Z" fill="#EBEBEB"/>
<path d="M391.386 328.648H362.554V328.866H391.386V328.648Z" fill="#EBEBEB"/>
<path d="M262.146 328.761H254.581V328.979H262.146V328.761Z" fill="#EBEBEB"/>
<path d="M361.675 320.57H308.189V320.787H361.675V320.57Z" fill="#EBEBEB"/>
<path d="M195.724 325.706H184.677V325.924H195.724V325.706Z" fill="#EBEBEB"/>
<path d="M176.929 325.706H144.868V325.924H176.929V325.706Z" fill="#EBEBEB"/>
<path d="M67.5378 322.032H45.4V322.25H67.5378V322.032Z" fill="#EBEBEB"/>
<path d="M137.955 322.032H72.761V322.25H137.955V322.032Z" fill="#EBEBEB"/>
<path d="M206.049 275.816H37.9569C36.6401 275.813 35.378 275.289 34.4477 274.357C33.5174 273.425 32.9949 272.162 32.9949 270.845V34.555C33.0064 33.2458 33.5339 31.9939 34.463 31.0713C35.3921 30.1488 36.6476 29.6301 37.9569 29.6278H206.049C207.367 29.6278 208.632 30.1515 209.564 31.0837C210.496 32.0159 211.02 33.2802 211.02 34.5986V270.845C211.02 272.163 210.496 273.427 209.564 274.36C208.632 275.292 207.367 275.816 206.049 275.816ZM37.9569 29.8019C36.6978 29.8042 35.4911 30.306 34.6016 31.1971C33.7121 32.0883 33.2125 33.2959 33.2125 34.555V270.845C33.2125 272.104 33.7121 273.312 34.6016 274.203C35.4911 275.094 36.6978 275.596 37.9569 275.598H206.049C207.309 275.596 208.516 275.094 209.407 274.203C210.298 273.312 210.8 272.105 210.802 270.845V34.555C210.8 33.2951 210.298 32.0875 209.407 31.1966C208.516 30.3057 207.309 29.8042 206.049 29.8019H37.9569Z" fill="#EBEBEB"/>
<path d="M394.355 275.816H226.254C224.936 275.813 223.673 275.289 222.742 274.357C221.81 273.425 221.286 272.162 221.283 270.845V34.555C221.297 33.245 221.827 31.9931 222.757 31.0708C223.687 30.1485 224.944 29.63 226.254 29.6278H394.355C395.662 29.6323 396.916 30.1521 397.843 31.0744C398.77 31.9967 399.297 33.2473 399.308 34.555V270.845C399.308 272.16 398.787 273.422 397.858 274.354C396.93 275.285 395.67 275.811 394.355 275.816ZM226.254 29.8019C224.994 29.8042 223.786 30.3057 222.896 31.1966C222.005 32.0875 221.503 33.2951 221.501 34.555V270.845C221.503 272.105 222.005 273.312 222.896 274.203C223.786 275.094 224.994 275.596 226.254 275.598H394.355C395.615 275.596 396.822 275.094 397.713 274.203C398.604 273.312 399.105 272.105 399.108 270.845V34.555C399.105 33.2951 398.604 32.0875 397.713 31.1966C396.822 30.3057 395.615 29.8042 394.355 29.8019H226.254Z" fill="#EBEBEB"/>
<path d="M165.813 198.956L377.388 198.956V44.4094L165.813 44.4094L165.813 198.956Z" fill="#E6E6E6"/>
<path d="M156.463 198.956L375.22 198.956V44.4094L156.463 44.4094L156.463 198.956Z" fill="#F0F0F0"/>
<path d="M362.119 185.863V57.5023L169.547 57.5023V185.863H362.119Z" fill="#FAFAFA"/>
<path d="M315.31 185.854L271.47 57.5023H229.606L273.446 185.854H315.31Z" fill="white"/>
<path d="M264.453 185.854L220.613 57.5023H204.299L248.139 185.854H264.453Z" fill="white"/>
<path d="M171.219 185.863V57.5023H169.556V185.863H171.219Z" fill="#E6E6E6"/>
<path d="M55.9422 156.918H130.652V50.9994L55.9422 50.9994L55.9422 156.918Z" fill="#E0E0E0"/>
<path d="M50.6581 156.918H127.666L127.666 50.9994L50.6581 50.9994L50.6581 156.918Z" fill="#F5F5F5"/>
<path d="M120.066 148.56V59.3391L58.2578 59.3391L58.2578 148.56H120.066Z" fill="white"/>
<path d="M84.9833 231.07C90.5287 217.385 103.717 212.292 108.279 203.648C114.242 192.331 114.207 175.347 109.149 169.227C104.727 163.899 90.1021 199.905 88.4568 203.927C83.9429 214.781 81.1186 226.263 80.0822 237.973C80.2041 229.52 80.3173 221.755 80.413 215.766C80.7264 196.231 81.1094 189.946 81.2836 188.013C81.8929 187.064 82.6155 185.967 83.0246 185.402C86.5677 180.413 94.42 174.468 98.3461 167.216C104.074 156.622 103.151 143.947 99.1296 139.228C94.9249 134.292 87.4992 145.958 83.5557 157.51C79.6121 169.062 81.2923 180.144 80.1867 189.719C79.9603 191.6 79.7166 198.747 79.499 208.671C78.2976 197.998 75.9123 190.851 71.4987 184.183C66.0666 175.991 61.3744 166.015 56.8998 167.303C52.4253 168.592 54.8279 181.798 58.371 191.06C61.5398 199.313 77.0789 207.548 79.3684 214.182C79.0985 227.623 78.8548 244.65 78.6894 260.52C77.4619 252.328 78.3063 251.641 73.2746 239.096C70.2887 231.644 58.0576 222.452 56.5777 227.57C55.0978 232.689 57.3351 242.369 61.9576 249.16C65.6922 254.627 73.9711 254.618 75.8862 258.013C76.3302 258.805 77.8101 261.843 78.6545 263.584C78.4543 282.945 78.3673 300.043 78.463 305.866L79.2639 305.927C79.2639 304.421 79.3249 294.61 79.4815 281.552C81.4925 274.588 95.0293 270.575 99.2079 263.358C103.561 255.811 106.729 247.001 104.849 241.107C103.282 236.189 90.9204 242.848 85.9496 251.023C82.6155 256.455 80.5784 262.244 79.6295 270.026C79.7427 261.147 79.8733 251.606 79.9952 242.605C81.0137 240.341 83.3032 235.17 84.9833 231.07Z" fill="#E6E6E6"/>
<path d="M92.9313 314.641H64.4822C63.7304 314.641 63.0019 314.38 62.4198 313.904C61.8377 313.429 61.4377 312.766 61.2873 312.03L59.2677 302.106H98.1546L96.1349 312.056C95.976 312.788 95.5716 313.443 94.9889 313.913C94.4062 314.384 93.6802 314.641 92.9313 314.641Z" fill="#F0F0F0"/>
<path d="M98.9729 305.927H58.4494C57.98 305.926 57.5274 305.753 57.1776 305.44C56.8277 305.127 56.605 304.696 56.5516 304.23L55.6811 296.874C55.6518 296.607 55.679 296.337 55.7609 296.081C55.8428 295.825 55.9777 295.589 56.1566 295.389C56.3356 295.189 56.5547 295.028 56.7998 294.918C57.0448 294.808 57.3102 294.751 57.5788 294.75H99.7476C100.017 294.749 100.283 294.806 100.528 294.915C100.774 295.025 100.994 295.185 101.173 295.386C101.352 295.587 101.487 295.823 101.569 296.079C101.65 296.336 101.676 296.607 101.645 296.874L100.775 304.23C100.724 304.68 100.515 305.098 100.185 305.409C99.8551 305.72 99.4255 305.904 98.9729 305.927Z" fill="#F0F0F0"/>
<path d="M352.847 308.295H361.544V214.721H352.847V308.295Z" fill="#F0F0F0"/>
<path d="M175.632 314.528H358.21V308.295H175.632V314.528Z" fill="#F0F0F0"/>
<path d="M352.856 214.721H172.298V308.295H352.856V214.721Z" fill="#F5F5F5"/>
<path d="M354.902 214.721H363.886V208.819H354.902V214.721Z" fill="#E0E0E0"/>
<path d="M354.902 208.819H169.956V214.721H354.902V208.819Z" fill="#EBEBEB"/>
<path d="M339.894 255.097H185.252C183.405 255.097 181.633 254.363 180.327 253.057C179.021 251.751 178.287 249.98 178.287 248.133V228.11C178.287 226.263 179.021 224.492 180.327 223.186C181.633 221.88 183.405 221.146 185.252 221.146H339.894C341.741 221.146 343.512 221.88 344.818 223.186C346.124 224.492 346.858 226.263 346.858 228.11V248.133C346.858 249.98 346.124 251.751 344.818 253.057C343.512 254.363 341.741 255.097 339.894 255.097ZM185.252 222.887C183.866 222.887 182.538 223.437 181.558 224.417C180.579 225.396 180.029 226.725 180.029 228.11V248.133C180.029 249.518 180.579 250.846 181.558 251.826C182.538 252.805 183.866 253.356 185.252 253.356H339.894C341.279 253.356 342.608 252.805 343.587 251.826C344.567 250.846 345.117 249.518 345.117 248.133V228.11C345.117 226.725 344.567 225.396 343.587 224.417C342.608 223.437 341.279 222.887 339.894 222.887H185.252Z" fill="white"/>
<path d="M339.894 297.048H185.252C183.405 297.048 181.633 296.314 180.327 295.008C179.021 293.702 178.287 291.931 178.287 290.084V270.061C178.287 268.214 179.021 266.443 180.327 265.137C181.633 263.831 183.405 263.097 185.252 263.097H339.894C341.741 263.097 343.512 263.831 344.818 265.137C346.124 266.443 346.858 268.214 346.858 270.061V290.084C346.858 291.931 346.124 293.702 344.818 295.008C343.512 296.314 341.741 297.048 339.894 297.048ZM185.252 264.768C183.866 264.768 182.538 265.319 181.558 266.298C180.579 267.278 180.029 268.606 180.029 269.992V290.014C180.029 291.399 180.579 292.728 181.558 293.707C182.538 294.687 183.866 295.237 185.252 295.237H339.894C341.279 295.237 342.608 294.687 343.587 293.707C344.567 292.728 345.117 291.399 345.117 290.014V269.992C345.117 268.606 344.567 267.278 343.587 266.298C342.608 265.319 341.279 264.768 339.894 264.768H185.252Z" fill="white"/>
<path d="M304.75 241.168H220.395C219.797 241.168 219.222 240.931 218.798 240.508C218.374 240.086 218.134 239.512 218.132 238.913V237.259C218.134 236.661 218.374 236.087 218.798 235.665C219.222 235.242 219.797 235.005 220.395 235.005H304.75C305.349 235.005 305.924 235.242 306.348 235.665C306.772 236.087 307.011 236.661 307.014 237.259V238.913C307.011 239.512 306.772 240.086 306.348 240.508C305.924 240.931 305.349 241.168 304.75 241.168ZM220.395 236.815C220.259 236.818 220.129 236.872 220.031 236.968C219.934 237.063 219.877 237.193 219.873 237.329V238.983C219.877 239.119 219.934 239.249 220.031 239.344C220.129 239.44 220.259 239.495 220.395 239.497H304.75C304.887 239.497 305.019 239.443 305.117 239.347C305.214 239.251 305.27 239.12 305.273 238.983V237.329C305.27 237.192 305.214 237.061 305.117 236.965C305.019 236.869 304.887 236.815 304.75 236.815H220.395Z" fill="white"/>
<path d="M304.75 283.119H220.395C219.797 283.119 219.222 282.882 218.798 282.459C218.374 282.037 218.134 281.463 218.132 280.865V279.211C218.134 278.612 218.374 278.038 218.798 277.616C219.222 277.193 219.797 276.956 220.395 276.956H304.75C305.349 276.956 305.924 277.193 306.348 277.616C306.772 278.038 307.011 278.612 307.014 279.211V280.865C307.011 281.463 306.772 282.037 306.348 282.459C305.924 282.882 305.349 283.119 304.75 283.119ZM220.395 278.697C220.259 278.699 220.129 278.754 220.031 278.849C219.934 278.945 219.877 279.074 219.873 279.211V280.865C219.877 281.001 219.934 281.13 220.031 281.226C220.129 281.321 220.259 281.376 220.395 281.378H304.75C304.887 281.378 305.019 281.324 305.117 281.228C305.214 281.132 305.27 281.002 305.273 280.865V279.211C305.27 279.074 305.214 278.943 305.117 278.847C305.019 278.751 304.887 278.697 304.75 278.697H220.395Z" fill="white"/>
<path d="M213.013 353.955C306.232 353.955 381.802 349.543 381.802 344.101C381.802 338.658 306.232 334.246 213.013 334.246C119.794 334.246 44.2248 338.658 44.2248 344.101C44.2248 349.543 119.794 353.955 213.013 353.955Z" fill="#F5F5F5"/>
<path d="M326 127.783L325.669 132.909L326.538 132.965L326.869 127.839L326 127.783Z" fill="#407BFF"/>
<path d="M327.321 106.966L326.235 123.811L327.104 123.867L328.19 107.022L327.321 106.966Z" fill="#407BFF"/>
<path d="M316.99 82.5042H214.658C212.031 82.5503 209.515 83.5737 207.601 85.3748C205.687 87.1759 204.513 89.6255 204.308 92.2455L191.084 296.386C190.988 297.638 191.152 298.895 191.568 300.08C191.983 301.264 192.64 302.349 193.497 303.266C194.354 304.183 195.393 304.911 196.546 305.405C197.7 305.9 198.944 306.148 200.199 306.136H302.513C305.145 306.093 307.667 305.069 309.586 303.267C311.504 301.464 312.682 299.011 312.89 296.386L326.105 92.2455C326.201 90.9946 326.037 89.7372 325.621 88.5534C325.206 87.3695 324.548 86.285 323.691 85.3689C322.834 84.4527 321.796 83.7249 320.642 83.2317C319.488 82.7386 318.245 82.4908 316.99 82.5042Z" fill="#407BFF"/>
<path opacity="0.7" d="M313.743 82.5042H214.658C212.031 82.5503 209.515 83.5737 207.601 85.3748C205.687 87.1759 204.513 89.6255 204.308 92.2455L191.084 296.386C190.988 297.638 191.152 298.895 191.568 300.08C191.983 301.264 192.64 302.349 193.497 303.266C194.354 304.183 195.393 304.911 196.546 305.405C197.7 305.9 198.944 306.148 200.199 306.136H299.266C301.898 306.093 304.42 305.069 306.339 303.267C308.257 301.464 309.435 299.011 309.643 296.386L322.857 92.2455C322.954 90.9946 322.789 89.7372 322.374 88.5534C321.959 87.3695 321.301 86.285 320.444 85.3689C319.587 84.4527 318.548 83.7249 317.395 83.2317C316.241 82.7386 314.998 82.4908 313.743 82.5042Z" fill="white"/>
<path d="M305.386 291.05H196.395C195.987 291.051 195.584 290.968 195.209 290.806C194.835 290.645 194.498 290.408 194.219 290.111C193.94 289.814 193.724 289.463 193.587 289.079C193.449 288.696 193.391 288.288 193.417 287.881L205.379 103.153C205.427 102.399 205.761 101.691 206.312 101.174C206.864 100.656 207.591 100.368 208.347 100.368H317.347C317.755 100.368 318.159 100.452 318.533 100.614C318.907 100.777 319.244 101.014 319.523 101.312C319.802 101.61 320.017 101.961 320.155 102.345C320.293 102.73 320.35 103.138 320.324 103.545L308.363 288.264C308.314 289.02 307.979 289.729 307.426 290.247C306.873 290.764 306.143 291.051 305.386 291.05Z" fill="white"/>
<path d="M281.167 94.3261H241.549C241.346 94.3279 241.144 94.2873 240.956 94.207C240.769 94.1266 240.6 94.0082 240.461 93.8592C240.322 93.7102 240.215 93.534 240.148 93.3416C240.08 93.1492 240.054 92.945 240.069 92.7417C240.11 92.3195 240.302 91.9265 240.612 91.6363C240.921 91.3462 241.326 91.179 241.75 91.1661H281.368C281.571 91.163 281.773 91.2025 281.96 91.2819C282.148 91.3613 282.316 91.4789 282.456 91.6271C282.595 91.7754 282.702 91.9512 282.769 92.1431C282.837 92.335 282.863 92.5389 282.848 92.7417C282.81 93.1655 282.618 93.5606 282.308 93.8526C281.998 94.1445 281.593 94.3129 281.167 94.3261Z" fill="white"/>
<path d="M250.246 298.806C250.182 299.85 249.726 300.83 248.968 301.551C248.211 302.271 247.208 302.678 246.163 302.689C245.661 302.694 245.164 302.595 244.702 302.399C244.239 302.202 243.823 301.913 243.477 301.549C243.132 301.185 242.865 300.753 242.694 300.281C242.522 299.81 242.45 299.308 242.481 298.806C242.547 297.765 243.004 296.786 243.761 296.068C244.519 295.349 245.52 294.944 246.564 294.933C247.065 294.927 247.563 295.025 248.025 295.22C248.487 295.415 248.904 295.703 249.249 296.067C249.595 296.43 249.862 296.861 250.033 297.333C250.205 297.804 250.277 298.306 250.246 298.806Z" fill="white"/>
<path opacity="0.2" d="M293.512 151.503H200.443L194.523 242.822H293.512C296.095 242.818 298.571 241.79 300.398 239.965C302.225 238.139 303.255 235.664 303.262 233.081V161.279C303.264 158.69 302.238 156.206 300.41 154.373C298.582 152.54 296.101 151.508 293.512 151.503Z" fill="#407BFF"/>
<path d="M284.841 143.416H170.783C165.399 143.416 161.033 147.781 161.033 153.166V224.994C161.033 230.378 165.399 234.744 170.783 234.744H284.841C290.226 234.744 294.591 230.378 294.591 224.994V153.166C294.591 147.781 290.226 143.416 284.841 143.416Z" fill="#407BFF"/>
<path d="M157.917 142.362C157.689 142.361 157.47 142.271 157.308 142.11L155.741 140.552C155.577 140.388 155.485 140.165 155.485 139.934C155.485 139.702 155.577 139.479 155.741 139.315C155.904 139.152 156.127 139.059 156.359 139.059C156.59 139.059 156.813 139.152 156.977 139.315L158.535 140.882C158.697 141.046 158.788 141.266 158.788 141.496C158.788 141.726 158.697 141.947 158.535 142.11C158.454 142.191 158.357 142.254 158.251 142.298C158.145 142.341 158.031 142.363 157.917 142.362Z" fill="#407BFF"/>
<path d="M155.558 147.829H153.355C153.124 147.829 152.903 147.738 152.74 147.574C152.576 147.411 152.485 147.19 152.485 146.959C152.485 146.728 152.576 146.506 152.74 146.343C152.903 146.18 153.124 146.088 153.355 146.088H155.558C155.789 146.088 156.01 146.18 156.173 146.343C156.337 146.506 156.428 146.728 156.428 146.959C156.428 147.19 156.337 147.411 156.173 147.574C156.01 147.738 155.789 147.829 155.558 147.829Z" fill="#407BFF"/>
<path d="M163.462 140.012C163.242 140.012 163.029 139.929 162.867 139.779C162.706 139.629 162.607 139.422 162.592 139.202L162.435 137C162.427 136.885 162.441 136.771 162.477 136.662C162.514 136.553 162.571 136.452 162.646 136.366C162.721 136.279 162.813 136.208 162.916 136.157C163.018 136.106 163.13 136.076 163.245 136.068C163.474 136.054 163.7 136.131 163.873 136.283C164.046 136.434 164.152 136.648 164.167 136.878L164.333 139.08C164.341 139.195 164.327 139.31 164.29 139.418C164.254 139.527 164.197 139.628 164.122 139.714C164.046 139.801 163.955 139.872 163.852 139.923C163.749 139.974 163.638 140.004 163.523 140.012H163.462Z" fill="#407BFF"/>
<path d="M237.554 225.35L272.575 260.363V225.35H237.554Z" fill="#407BFF"/>
<path d="M247.156 210.012L245.415 202.621C244.975 200.678 244.975 198.662 245.415 196.719L247.835 186.194C248.825 181.706 248.289 177.015 246.311 172.867C244.334 168.718 241.028 165.347 236.918 163.29C236.995 163.096 237.062 162.899 237.118 162.698C237.261 162.06 237.277 161.399 237.165 160.755C237.052 160.11 236.814 159.494 236.464 158.941C236.113 158.389 235.657 157.911 235.122 157.534C234.587 157.158 233.983 156.891 233.345 156.748C232.706 156.605 232.046 156.589 231.401 156.702C230.757 156.814 230.14 157.052 229.588 157.403C229.035 157.753 228.557 158.209 228.181 158.744C227.805 159.279 227.537 159.883 227.394 160.522C227.351 160.725 227.325 160.932 227.316 161.14C222.722 161.248 218.295 162.885 214.736 165.793C211.177 168.7 208.69 172.712 207.668 177.193L205.309 187.726C204.876 189.665 204.013 191.483 202.784 193.045L198.092 199.008C197.633 199.593 197.33 200.285 197.21 201.019C197.091 201.752 197.159 202.504 197.408 203.205C197.657 203.905 198.08 204.531 198.637 205.024C199.193 205.517 199.865 205.861 200.591 206.025L241.941 215.287C242.664 215.443 243.415 215.415 244.123 215.204C244.832 214.993 245.476 214.607 245.996 214.081C246.516 213.555 246.895 212.906 247.098 212.195C247.3 211.484 247.32 210.733 247.156 210.012Z" fill="white"/>
<path d="M215.929 212.292C215.615 212.223 215.288 212.232 214.978 212.319C214.668 212.406 214.384 212.569 214.152 212.792C213.919 213.015 213.745 213.291 213.646 213.598C213.546 213.904 213.523 214.23 213.579 214.547C213.816 215.946 214.465 217.242 215.442 218.271C216.418 219.301 217.679 220.016 219.064 220.326C220.449 220.635 221.894 220.526 223.216 220.012C224.539 219.498 225.678 218.601 226.489 217.437C226.674 217.175 226.792 216.871 226.833 216.552C226.873 216.234 226.834 215.91 226.72 215.61C226.605 215.31 226.419 215.042 226.177 214.831C225.935 214.62 225.644 214.472 225.331 214.399L215.929 212.292Z" fill="white"/>
<path d="M184.172 197.641C183.957 197.643 183.744 197.59 183.554 197.489C183.364 197.387 183.202 197.239 183.084 197.058C178.973 190.898 177.476 183.357 178.924 176.094C180.372 168.831 184.646 162.44 190.806 158.328C191.094 158.136 191.447 158.067 191.787 158.136C192.126 158.204 192.425 158.405 192.616 158.694C192.808 158.982 192.877 159.335 192.809 159.675C192.74 160.014 192.539 160.313 192.251 160.504C186.675 164.239 182.809 170.034 181.503 176.617C180.198 183.2 181.558 190.033 185.287 195.613C185.479 195.901 185.55 196.253 185.483 196.592C185.416 196.932 185.217 197.231 184.93 197.424C184.705 197.571 184.441 197.647 184.172 197.641Z" fill="white"/>
<path d="M189.7 193.933C189.486 193.932 189.276 193.878 189.088 193.776C188.899 193.674 188.739 193.528 188.621 193.35C185.491 188.657 184.352 182.914 185.454 177.382C186.556 171.851 189.808 166.983 194.497 163.847C194.64 163.752 194.8 163.685 194.969 163.652C195.137 163.618 195.311 163.618 195.479 163.652C195.648 163.685 195.808 163.752 195.951 163.847C196.094 163.943 196.216 164.066 196.312 164.208C196.407 164.351 196.474 164.512 196.507 164.68C196.541 164.849 196.541 165.022 196.507 165.191C196.474 165.359 196.407 165.52 196.312 165.662C196.216 165.805 196.094 165.928 195.951 166.023C191.835 168.77 188.979 173.039 188.011 177.891C187.043 182.743 188.042 187.78 190.788 191.896C190.981 192.183 191.052 192.536 190.985 192.875C190.918 193.215 190.719 193.514 190.431 193.707C190.215 193.851 189.961 193.93 189.7 193.933Z" fill="white"/>
<path d="M195.237 190.233C195.023 190.234 194.813 190.182 194.625 190.082C194.436 189.982 194.276 189.836 194.157 189.659C193.091 188.062 192.35 186.27 191.976 184.386C191.603 182.502 191.605 180.563 191.981 178.68C192.358 176.797 193.103 175.006 194.172 173.411C195.242 171.816 196.615 170.448 198.214 169.384C198.502 169.205 198.847 169.145 199.178 169.217C199.509 169.288 199.799 169.485 199.988 169.766C200.176 170.047 200.248 170.39 200.188 170.723C200.129 171.056 199.942 171.353 199.668 171.551C198.356 172.427 197.23 173.552 196.354 174.863C195.477 176.174 194.868 177.645 194.56 179.191C194.252 180.738 194.251 182.33 194.559 183.876C194.866 185.423 195.475 186.894 196.351 188.205C196.541 188.493 196.611 188.845 196.544 189.183C196.477 189.522 196.28 189.821 195.994 190.016C195.77 190.163 195.506 190.239 195.237 190.233Z" fill="white"/>
<path d="M259.456 216.001C259.164 216 258.881 215.902 258.652 215.721C258.422 215.54 258.26 215.288 258.191 215.004C258.122 214.721 258.15 214.422 258.27 214.156C258.391 213.89 258.597 213.672 258.856 213.537C264.82 210.456 269.317 205.132 271.357 198.736C273.398 192.34 272.815 185.396 269.737 179.43C269.644 179.277 269.583 179.106 269.558 178.928C269.534 178.75 269.546 178.569 269.594 178.396C269.643 178.224 269.726 178.063 269.84 177.924C269.953 177.785 270.094 177.67 270.254 177.588C270.413 177.506 270.588 177.458 270.767 177.446C270.946 177.434 271.126 177.46 271.295 177.521C271.464 177.582 271.618 177.677 271.748 177.8C271.879 177.923 271.983 178.072 272.053 178.237C273.734 181.497 274.756 185.057 275.062 188.712C275.367 192.368 274.949 196.048 273.832 199.542C272.715 203.036 270.92 206.275 268.55 209.075C266.181 211.876 263.283 214.182 260.022 215.862C259.846 215.948 259.653 215.995 259.456 216.001Z" fill="white"/>
<path d="M256.401 210.09C256.109 210.089 255.825 209.991 255.596 209.81C255.367 209.63 255.204 209.377 255.135 209.094C255.066 208.81 255.094 208.511 255.214 208.245C255.335 207.979 255.541 207.761 255.8 207.626C257.978 206.503 259.914 204.962 261.496 203.09C263.078 201.218 264.276 199.053 265.021 196.718C265.765 194.383 266.042 191.924 265.836 189.482C265.63 187.04 264.944 184.662 263.818 182.485C263.658 182.177 263.628 181.818 263.733 181.488C263.839 181.157 264.071 180.882 264.379 180.722C264.687 180.563 265.046 180.533 265.377 180.638C265.707 180.743 265.983 180.976 266.142 181.284C267.425 183.766 268.206 186.476 268.441 189.259C268.676 192.043 268.36 194.846 267.512 197.508C266.663 200.169 265.297 202.637 263.494 204.771C261.691 206.904 259.484 208.662 257.001 209.942C256.817 210.041 256.61 210.092 256.401 210.09Z" fill="white"/>
<path d="M253.345 204.179C253.054 204.174 252.773 204.073 252.546 203.891C252.318 203.71 252.158 203.458 252.089 203.175C252.02 202.892 252.048 202.595 252.166 202.329C252.285 202.063 252.488 201.844 252.744 201.707C254.146 200.985 255.392 199.995 256.41 198.792C257.428 197.588 258.199 196.196 258.679 194.694C259.158 193.193 259.337 191.612 259.204 190.041C259.072 188.47 258.631 186.941 257.907 185.541C257.747 185.233 257.717 184.874 257.822 184.543C257.928 184.213 258.16 183.937 258.468 183.778C258.776 183.619 259.135 183.588 259.466 183.694C259.797 183.799 260.072 184.031 260.231 184.34C262.003 187.787 262.334 191.797 261.153 195.489C259.971 199.181 257.373 202.253 253.928 204.031C253.748 204.124 253.548 204.175 253.345 204.179Z" fill="white"/>
<path d="M176.764 91.3053H170.113C169.941 91.3097 169.775 91.3751 169.646 91.4898C169.517 91.6045 169.433 91.7612 169.408 91.9321L168.015 105.199C168.005 105.279 168.012 105.36 168.036 105.437C168.06 105.514 168.101 105.585 168.154 105.645C168.208 105.705 168.273 105.753 168.347 105.786C168.421 105.819 168.5 105.835 168.581 105.835H175.232C175.406 105.83 175.572 105.763 175.702 105.647C175.831 105.53 175.914 105.372 175.937 105.199L177.33 91.9321C177.34 91.8526 177.333 91.7718 177.309 91.6953C177.285 91.6189 177.244 91.5485 177.191 91.489C177.137 91.4295 177.071 91.3823 176.997 91.3506C176.924 91.3189 176.844 91.3034 176.764 91.3053Z" fill="#407BFF"/>
<path opacity="0.4" d="M176.163 91.3054H170.113C169.941 91.3098 169.775 91.3751 169.646 91.4898C169.517 91.6045 169.433 91.7612 169.408 91.9321L168.015 105.199C168.005 105.279 168.012 105.36 168.036 105.437C168.06 105.514 168.101 105.585 168.154 105.645C168.208 105.705 168.273 105.753 168.347 105.786C168.421 105.819 168.5 105.835 168.581 105.835H174.675C174.848 105.83 175.013 105.763 175.141 105.646C175.269 105.529 175.35 105.371 175.371 105.199L176.764 91.9321C176.776 91.8492 176.77 91.7646 176.744 91.6847C176.719 91.6048 176.676 91.5317 176.618 91.4712C176.56 91.4107 176.489 91.3643 176.41 91.3355C176.331 91.3068 176.247 91.2964 176.163 91.3054Z" fill="white"/>
<path d="M143.431 336.623C144.302 336.623 145.172 336.492 145.477 336.092C145.551 335.984 145.591 335.857 145.591 335.726C145.591 335.595 145.551 335.468 145.477 335.36C145.35 335.165 145.154 335.025 144.928 334.969C143.745 334.647 141.342 336.057 141.237 336.118C141.21 336.135 141.189 336.16 141.177 336.19C141.164 336.219 141.161 336.252 141.168 336.283C141.174 336.318 141.191 336.35 141.216 336.374C141.241 336.399 141.272 336.416 141.307 336.422C142.008 336.549 142.719 336.616 143.431 336.623ZM144.493 335.256C144.6 335.242 144.708 335.242 144.815 335.256C144.954 335.289 145.075 335.373 145.155 335.491C145.277 335.7 145.242 335.804 145.155 335.857C144.85 336.318 143.066 336.327 141.751 336.144C142.595 335.665 143.528 335.363 144.493 335.256Z" fill="#407BFF"/>
<path d="M141.29 336.422H141.359C142.23 336.039 143.814 334.516 143.649 333.715C143.649 333.532 143.466 333.297 143.005 333.254C142.841 333.236 142.676 333.251 142.519 333.299C142.362 333.347 142.216 333.426 142.091 333.532C141.22 334.272 141.124 336.144 141.116 336.248C141.114 336.279 141.121 336.309 141.135 336.337C141.148 336.364 141.169 336.388 141.194 336.405C141.223 336.42 141.257 336.426 141.29 336.422ZM142.891 333.567H142.987C143.292 333.567 143.318 333.715 143.318 333.75C143.422 334.229 142.326 335.43 141.481 335.952C141.534 335.153 141.839 334.391 142.352 333.776C142.503 333.647 142.693 333.573 142.891 333.567Z" fill="#407BFF"/>
<path d="M140.576 319.935H133.524V336.257H140.576V319.935Z" fill="#FF8B7B"/>
<path d="M82.3891 328.474L89.4318 329.24L94.0195 313.397L86.9769 312.631L82.3891 328.474Z" fill="#FF8B7B"/>
<path d="M92.705 330.834C93.5755 331.06 94.4461 331.156 94.8378 330.834C94.9335 330.745 94.9985 330.628 95.0236 330.499C95.0486 330.371 95.0323 330.238 94.9771 330.12C94.9413 330.011 94.8844 329.911 94.8097 329.824C94.735 329.737 94.644 329.666 94.5418 329.615C93.4537 329.014 90.755 329.772 90.6418 329.798C90.6087 329.807 90.5791 329.826 90.5573 329.852C90.5354 329.879 90.5224 329.911 90.52 329.946C90.5199 329.98 90.5297 330.014 90.5482 330.043C90.5667 330.073 90.5931 330.096 90.6244 330.111C91.2962 330.411 91.9922 330.652 92.705 330.834ZM94.0805 329.789C94.1861 329.815 94.2884 329.853 94.3851 329.902C94.5141 329.963 94.6141 330.073 94.6637 330.207C94.7334 330.442 94.6637 330.529 94.6637 330.581C94.2459 330.938 92.4961 330.511 91.2512 330.007C92.1717 329.753 93.1328 329.682 94.0805 329.798V329.789Z" fill="#407BFF"/>
<path d="M90.6592 330.128H90.7289C91.5994 329.963 93.6017 328.901 93.6365 328.1C93.6365 327.909 93.5668 327.647 93.1229 327.491C92.9665 327.434 92.8004 327.41 92.6344 327.419C92.4685 327.428 92.306 327.47 92.1566 327.543C91.1293 328.039 90.5548 329.832 90.5287 329.902C90.5141 329.927 90.5065 329.956 90.5065 329.985C90.5065 330.014 90.5141 330.042 90.5287 330.067C90.5434 330.088 90.5632 330.104 90.586 330.115C90.6089 330.126 90.6341 330.13 90.6592 330.128ZM92.9226 327.787H93.0271C93.3144 327.891 93.3057 328.013 93.3057 328.048C93.3057 328.535 91.9128 329.415 90.9552 329.702C91.1963 328.949 91.6722 328.293 92.3133 327.83C92.5045 327.743 92.7209 327.727 92.9226 327.787Z" fill="#407BFF"/>
<path d="M89.8061 328.587L82.1019 326.376C81.9695 326.337 81.8274 326.344 81.7002 326.398C81.573 326.453 81.4687 326.549 81.4054 326.672L78.5675 332.305C78.5012 332.447 78.4671 332.603 78.4677 332.76C78.4683 332.917 78.5035 333.072 78.5708 333.214C78.6381 333.356 78.7359 333.482 78.8572 333.582C78.9785 333.682 79.1203 333.754 79.2726 333.793C81.9713 334.516 83.3206 334.742 86.707 335.708C88.7876 336.309 93.0271 337.754 95.9086 338.581C98.7901 339.408 99.8521 336.701 98.7378 336.109C93.7409 333.454 92.1391 331.312 90.8159 329.327C90.5786 328.968 90.2203 328.706 89.8061 328.587Z" fill="#263238"/>
<path d="M140.497 335.439H132.802C132.663 335.437 132.529 335.486 132.424 335.575C132.318 335.665 132.248 335.789 132.227 335.926L131.104 342.151C131.079 342.306 131.088 342.465 131.13 342.616C131.172 342.768 131.247 342.909 131.349 343.029C131.45 343.149 131.577 343.245 131.72 343.311C131.862 343.378 132.018 343.412 132.175 343.413C134.952 343.361 138.957 343.195 142.447 343.195C146.53 343.195 148.759 343.422 153.547 343.422C156.437 343.422 157.116 340.497 155.889 340.227C150.326 339.025 147.114 338.895 142.221 335.952C141.701 335.633 141.107 335.456 140.497 335.439Z" fill="#263238"/>
<path opacity="0.2" d="M140.576 319.935H133.524V328.353H140.576V319.935Z" fill="black"/>
<path opacity="0.2" d="M86.9769 312.639L94.0195 313.397L91.4688 322.189L84.609 320.805L86.9769 312.639Z" fill="black"/>
<path d="M128.98 157.597C128.98 157.597 125.089 210.821 121.607 231C117.768 253.103 95.4298 320.779 95.4298 320.779L82.6329 318.437C82.6329 318.437 98.7639 254.888 100.549 233.003C102.49 209.254 104.823 160.304 104.823 160.304L128.98 157.597Z" fill="#407BFF"/>
<path opacity="0.3" d="M122.425 179.708C123.122 176.783 124.723 180.466 126.586 186.847C125.176 202.638 123.339 220.928 121.581 231.009C121.189 233.264 120.597 235.997 119.84 239.096C120.51 216.567 120.536 187.622 122.425 179.708Z" fill="black"/>
<path d="M142.273 156.152C142.273 156.152 147.383 209.655 147.558 231.148C147.74 253.512 143.135 326.725 143.135 326.725H131.183C131.183 326.725 127.596 254.818 126.107 232.855C124.48 208.915 117.628 158.859 117.628 158.859L142.273 156.152Z" fill="#407BFF"/>
<path d="M98.1023 316.47C98.1546 316.47 96.0914 321.11 96.0914 321.11L81.6927 318.498L82.5632 314.189L98.1023 316.47Z" fill="#263238"/>
<path d="M145.224 321.963C145.277 321.963 144.763 326.925 144.763 326.925H130.243L129.651 322.502L145.224 321.963Z" fill="#263238"/>
<path d="M105.171 108.464C104.213 110.318 103.16 112.268 102.203 114.192L99.2776 119.99C98.3287 121.922 97.3972 123.863 96.5005 125.805C95.6039 127.746 94.7595 129.679 94.0369 131.611L93.9673 128.564C94.4761 130.129 95.0868 131.659 95.7954 133.143C96.1349 133.909 96.5702 134.641 96.9445 135.398C97.3188 136.155 97.8151 136.878 98.259 137.592C99.1827 139.067 100.182 140.494 101.254 141.866C101.793 142.554 102.333 143.259 102.908 143.921C103.482 144.582 104.109 145.27 104.649 145.836L104.823 146.027C105.224 146.468 105.455 147.036 105.475 147.632C105.495 148.227 105.302 148.81 104.931 149.276C104.56 149.742 104.036 150.061 103.451 150.176C102.867 150.29 102.26 150.193 101.741 149.901C100.841 149.394 99.9695 148.839 99.1296 148.238C98.259 147.664 97.493 147.063 96.7095 146.428C95.141 145.141 93.6688 143.742 92.3046 142.24C90.9119 140.715 89.6454 139.079 88.5177 137.348C87.359 135.585 86.3514 133.727 85.5057 131.794C85.1331 130.974 85.0682 130.047 85.3228 129.182L85.4447 128.773C86.1063 126.501 86.8463 124.299 87.6646 122.14C88.4829 119.981 89.3534 117.865 90.2762 115.785C91.199 113.704 92.1653 111.65 93.1838 109.621C94.2023 107.593 95.2296 105.608 96.4048 103.58C97.0543 102.419 98.1356 101.561 99.4138 101.193C100.692 100.825 102.064 100.976 103.231 101.614C104.399 102.252 105.267 103.324 105.649 104.598C106.03 105.873 105.893 107.246 105.267 108.42L105.171 108.464Z" fill="#FF8B7B"/>
<path d="M110.168 105.365C110.516 112.007 102.977 124.203 102.977 124.203L87.4557 116.446C89.3419 110.945 92.2612 105.854 96.0566 101.447C104.266 92.3762 109.846 99.2708 110.168 105.365Z" fill="#263238"/>
<path d="M99.6519 148.656L102.777 153.88L109.28 149.718C108.144 147.683 106.365 146.082 104.222 145.165C103.727 145.007 103.191 145.032 102.712 145.234C102.232 145.437 101.842 145.805 101.611 146.271L99.6519 148.656Z" fill="#FF8B7B"/>
<path d="M105.38 156.108L108.401 155.542C108.655 155.495 108.898 155.398 109.114 155.257C109.331 155.116 109.517 154.933 109.663 154.72C109.809 154.506 109.911 154.266 109.963 154.012C110.015 153.759 110.017 153.498 109.968 153.244L109.28 149.762L102.777 153.923L103.212 154.976C103.39 155.384 103.703 155.718 104.097 155.924C104.491 156.13 104.944 156.195 105.38 156.108Z" fill="#FF8B7B"/>
<path d="M123.722 71.9882C123.783 72.554 124.14 72.998 124.506 72.9632C124.871 72.9284 125.115 72.4496 125.045 71.8837C124.976 71.3179 124.628 70.8739 124.262 70.9C123.896 70.9261 123.653 71.4136 123.722 71.9882Z" fill="#263238"/>
<path d="M124.088 72.998C124.968 74.6888 126.066 76.2575 127.352 77.6641C126.482 78.6827 124.741 78.3867 124.741 78.3867L124.088 72.998Z" fill="#FF8B7B"/>
<path d="M121.285 68.9848C121.33 68.9915 121.376 68.988 121.42 68.9744C121.464 68.9608 121.504 68.9376 121.537 68.9064C121.839 68.6238 122.206 68.4196 122.605 68.3118C123.004 68.204 123.424 68.196 123.827 68.2883C123.868 68.3015 123.911 68.306 123.954 68.3016C123.997 68.2972 124.039 68.2839 124.076 68.2627C124.114 68.2414 124.147 68.2126 124.173 68.1781C124.199 68.1436 124.217 68.104 124.227 68.062C124.249 67.9755 124.237 67.8839 124.193 67.8062C124.149 67.7284 124.077 67.6704 123.992 67.6441C123.483 67.5227 122.952 67.5274 122.445 67.6579C121.939 67.7883 121.472 68.0406 121.084 68.3928C121.052 68.4237 121.026 68.4608 121.009 68.502C120.991 68.5431 120.982 68.5874 120.982 68.6322C120.982 68.677 120.991 68.7213 121.009 68.7624C121.026 68.8036 121.052 68.8407 121.084 68.8716C121.109 68.9029 121.139 68.929 121.173 68.9484C121.208 68.9679 121.245 68.9802 121.285 68.9848Z" fill="#263238"/>
<path d="M106.172 78.2909C107.835 83.3313 110.046 92.6199 106.895 96.3458C106.895 96.3458 108.967 101.421 118.508 100.611C129.015 99.7409 122.86 94.9965 122.86 94.9965C116.958 94.126 116.558 89.869 117.045 85.8036L106.172 78.2909Z" fill="#FF8B7B"/>
<path d="M104.64 98.1827C103.656 96.607 102.559 94.805 104.422 94.1347C106.468 93.3947 117.959 92.1934 122.051 93.2032C126.142 94.213 125.307 97.5559 125.307 97.5559L104.64 98.1827Z" fill="#407BFF"/>
<path d="M138.286 100.307C139.784 101.682 141.403 103.206 143.013 104.598C144.624 105.991 146.252 107.419 147.888 108.794C149.525 110.17 151.196 111.467 152.876 112.729C154.557 113.992 156.263 115.141 157.969 116.211L154.487 115.881C155.934 115.495 157.304 114.861 158.535 114.009C159.974 113.003 161.309 111.857 162.522 110.588C163.829 109.25 165.053 107.835 166.187 106.348C166.77 105.591 167.354 104.825 167.928 104.033C168.503 103.24 169.025 102.405 169.504 101.673L169.599 101.534C169.93 101.029 170.431 100.66 171.012 100.494C171.592 100.327 172.212 100.375 172.76 100.629C173.308 100.882 173.747 101.324 173.996 101.874C174.245 102.423 174.288 103.045 174.118 103.623C173.787 104.755 173.439 105.721 173.038 106.731C172.638 107.741 172.22 108.734 171.75 109.709C170.797 111.697 169.681 113.604 168.416 115.411C167.087 117.326 165.538 119.079 163.802 120.634C161.88 122.35 159.649 123.685 157.229 124.569C156.71 124.752 156.159 124.83 155.609 124.798C155.059 124.767 154.521 124.627 154.026 124.386L153.738 124.238C151.577 123.175 149.478 121.99 147.453 120.686C145.477 119.406 143.562 118.074 141.716 116.647C139.871 115.219 138.086 113.774 136.345 112.294C134.604 110.814 132.932 109.265 131.235 107.532C130.332 106.59 129.828 105.335 129.83 104.029C129.833 102.724 130.34 101.47 131.247 100.531C132.153 99.5922 133.388 99.0406 134.692 98.9922C135.997 98.9439 137.269 99.4025 138.243 100.272L138.286 100.307Z" fill="#FF8B7B"/>
<path d="M132.967 95.7886C132.967 95.7886 141.742 104.302 142.761 156.961C128.728 160.365 115.226 161.619 104.797 160.295C104.301 153.688 103.561 130.758 96.8575 106.583C96.5695 105.565 96.4964 104.498 96.6427 103.45C96.789 102.402 97.1516 101.396 97.7074 100.496C98.2632 99.5952 99.0001 98.8201 99.8713 98.2196C100.743 97.6192 101.729 97.2063 102.768 97.0073C104.1 96.7462 105.502 96.5111 106.895 96.3283C112.186 95.5714 117.517 95.1209 122.86 94.979C126.244 95.0066 129.622 95.2772 132.967 95.7886Z" fill="#263238"/>
<path d="M126.16 104.964C127.03 111.554 138.347 124.22 138.347 124.22L151.78 110.292C147.789 106.103 143.476 102.234 138.878 98.7223C129.032 91.3663 125.376 98.8529 126.16 104.964Z" fill="#263238"/>
<path d="M173.247 105.939L177.739 101.821L172.359 96.2936C170.58 97.8089 169.355 99.873 168.877 102.161C168.824 102.684 168.963 103.208 169.267 103.637C169.571 104.066 170.02 104.371 170.531 104.494L173.247 105.939Z" fill="#FF8B7B"/>
<path d="M179.393 98.8268L178.235 95.9801C178.137 95.7359 177.991 95.5138 177.806 95.327C177.62 95.1402 177.399 94.9925 177.156 94.8927C176.912 94.7928 176.651 94.7429 176.388 94.7457C176.125 94.7486 175.865 94.8042 175.624 94.9094L172.324 96.2935L177.704 101.821L178.644 101.186C179.022 100.939 179.302 100.569 179.439 100.14C179.575 99.7098 179.559 99.2461 179.393 98.8268Z" fill="#FF8B7B"/>
<path d="M104.832 72.2842C106.094 79.2485 106.477 83.3748 110.394 86.6916C116.288 91.6797 124.419 87.7972 125.193 80.6849C125.925 74.2777 123.74 63.9619 116.653 61.7159C109.567 59.4699 103.569 65.3199 104.832 72.2842Z" fill="#FF8B7B"/>
<path d="M118.56 74.7912C121.006 75.3484 122.913 72.5191 123.174 71.7182C121.981 71.8314 119.866 71.222 119.448 70.6823C120.754 70.7955 122.016 69.185 122.173 68.5669C120.787 68.2994 119.56 67.5032 118.751 66.347C120.867 66.3035 123.409 62.5776 121.084 59.2434C118.76 55.9093 109.045 58.7037 107.678 56.3271C105.641 57.5111 107.452 59.0867 107.452 59.0867C107.452 59.0867 93.7061 61.6984 100.044 66.9999C95.395 67.4178 94.7421 72.9109 98.6159 75.7053C102.49 78.4997 102.69 80.3453 101.149 80.1189C101.767 81.3028 104.527 81.4595 104.684 80.3104C105.336 82.7218 107.217 85.9863 111.552 85.4553C115.887 84.9243 120.136 78.8566 118.56 74.7912Z" fill="#263238"/>
<path d="M101.245 66.1903C97.9717 66.643 96.4831 64.7975 97.3014 63.1696C93.2447 65.2414 97.6758 69.8205 101.245 66.1903Z" fill="#263238"/>
<path d="M115.174 73.7293C115.737 75.1883 116.733 76.4398 118.029 77.3159C119.77 78.465 121.346 77.3159 121.05 75.5748C120.78 73.973 119.552 71.4398 117.742 70.9871C117.367 70.864 116.964 70.8506 116.582 70.9485C116.2 71.0463 115.853 71.2513 115.583 71.5394C115.314 71.8275 115.132 72.1866 115.059 72.5746C114.986 72.9625 115.026 73.3631 115.174 73.7293Z" fill="#FF8B7B"/>
<path d="M336.438 319.099C329.996 303.899 327.393 286.018 334.766 286.758C342.331 287.49 341.443 314.441 342.671 317.401C340.312 319.43 336.438 319.099 336.438 319.099Z" fill="#407BFF"/>
<path d="M338.527 290.258C336.943 296.056 335.263 305.013 333.983 312.604C334.714 314.781 335.541 316.957 336.438 319.099C336.438 319.099 340.303 319.429 342.68 317.401C341.705 315.068 342.053 297.797 338.527 290.258Z" fill="#263238"/>
<path d="M338.562 316.313C336.542 284.016 342.044 254.078 356.53 255.428C368.961 256.594 350.837 310.968 351.185 317.236C345.491 319.447 338.562 316.313 338.562 316.313Z" fill="#407BFF"/>
<path d="M347.946 316.104C350.218 292.887 362.467 265.796 367.725 274.849C374.402 286.34 357.279 313.71 356.817 318.211C352.534 319.133 347.946 316.104 347.946 316.104Z" fill="#407BFF"/>
<path d="M345.657 264.055C344.186 263.811 343.367 262.897 343.463 261.6C343.568 260.137 344.769 258.683 345.883 258.666C346.423 258.666 347.328 258.945 347.555 260.956L346.684 261.06C346.58 260.102 346.292 259.537 345.909 259.537C345.317 259.537 344.412 260.616 344.342 261.661C344.281 262.531 344.769 263.019 345.805 263.193L345.657 264.055Z" fill="#407BFF"/>
<path d="M361.292 269.896C360.659 269.845 360.054 269.612 359.551 269.226L360.021 268.503C360.83 269.025 361.457 269.165 361.701 268.869C362.066 268.399 361.814 267.023 361.057 266.301C360.447 265.717 359.733 265.761 358.941 266.457L358.375 265.796C358.579 265.566 358.827 265.38 359.105 265.249C359.382 265.118 359.684 265.045 359.99 265.034C360.297 265.022 360.603 265.073 360.889 265.183C361.176 265.293 361.437 265.46 361.657 265.674C362.719 266.684 363.076 268.529 362.38 269.408C362.251 269.571 362.085 269.701 361.896 269.786C361.706 269.871 361.499 269.908 361.292 269.896Z" fill="#407BFF"/>
<path d="M339.955 283.041C339.428 283.079 338.905 282.922 338.485 282.602C338.065 282.281 337.777 281.818 337.674 281.3C337.326 279.881 338.022 278.131 339.084 277.766C339.58 277.6 340.538 277.583 341.374 279.437L340.573 279.803C340.181 278.932 339.702 278.462 339.363 278.593C338.806 278.784 338.275 280.081 338.492 281.091C338.693 281.961 339.363 282.257 340.355 282.101L340.486 282.971C340.311 283.01 340.133 283.033 339.955 283.041Z" fill="#407BFF"/>
<path d="M330.684 301.07C330.259 301.08 329.842 300.961 329.486 300.73C329.131 300.498 328.853 300.165 328.69 299.773C328.081 298.441 328.438 296.587 329.404 296.029C329.865 295.768 330.805 295.577 331.972 297.248L331.258 297.744C330.701 296.952 330.17 296.595 329.839 296.787C329.326 297.083 329.047 298.458 329.482 299.398C329.839 300.173 330.518 300.382 331.502 300.034L331.789 300.861C331.436 300.995 331.062 301.065 330.684 301.07Z" fill="#407BFF"/>
<path d="M346.11 274.788C346.019 274.788 345.932 274.761 345.857 274.71C345.316 274.411 344.902 273.926 344.691 273.345C344.48 272.764 344.486 272.127 344.708 271.55C344.96 270.972 345.391 270.49 345.939 270.176C346.486 269.863 347.12 269.734 347.746 269.809C348.286 269.905 349.548 270.383 349.635 272.699C349.635 272.815 349.589 272.925 349.508 273.007C349.426 273.088 349.315 273.134 349.2 273.134C349.084 273.134 348.974 273.088 348.892 273.007C348.811 272.925 348.765 272.815 348.765 272.699C348.712 271.489 348.303 270.758 347.589 270.627C347.156 270.593 346.723 270.694 346.35 270.917C345.977 271.14 345.683 271.474 345.509 271.872C345.195 272.612 345.509 273.361 346.379 273.979C346.456 274.032 346.513 274.108 346.543 274.196C346.572 274.284 346.573 274.379 346.545 274.468C346.517 274.556 346.461 274.634 346.386 274.688C346.311 274.743 346.22 274.772 346.127 274.771L346.11 274.788Z" fill="white"/>
<path d="M356.425 298.284C356.326 298.285 356.229 298.251 356.152 298.187C356.075 298.123 356.024 298.034 356.008 297.936C355.995 297.88 355.993 297.823 356.003 297.767C356.013 297.711 356.034 297.657 356.065 297.609C356.095 297.561 356.136 297.52 356.183 297.488C356.23 297.456 356.283 297.434 356.338 297.422C357.522 297.178 358.175 296.647 358.193 295.925C358.153 295.492 357.981 295.082 357.699 294.751C357.416 294.421 357.038 294.186 356.617 294.079C355.833 293.888 355.137 294.314 354.676 295.272C354.65 295.323 354.615 295.369 354.572 295.407C354.53 295.445 354.48 295.474 354.425 295.493C354.371 295.512 354.314 295.519 354.257 295.516C354.2 295.512 354.144 295.497 354.092 295.472C354.041 295.447 353.995 295.412 353.957 295.369C353.919 295.326 353.89 295.276 353.871 295.222C353.853 295.168 353.845 295.111 353.849 295.053C353.852 294.996 353.867 294.94 353.892 294.889C354.105 294.312 354.516 293.828 355.051 293.524C355.586 293.22 356.212 293.114 356.817 293.226C357.432 293.378 357.982 293.723 358.386 294.21C358.79 294.697 359.028 295.301 359.063 295.934C359.063 296.482 358.785 297.805 356.521 298.275L356.425 298.284Z" fill="white"/>
<path d="M368.665 290.945C368.16 290.945 367.49 290.649 366.741 289.527L367.464 289.039C368.004 289.84 368.517 290.206 368.857 290.023C369.379 289.744 369.727 288.369 369.266 287.411C368.935 286.636 368.256 286.41 367.264 286.732L366.994 285.905C368.404 285.444 369.553 285.905 370.067 287.072C370.65 288.412 370.258 290.258 369.274 290.789C369.089 290.894 368.878 290.948 368.665 290.945Z" fill="#407BFF"/>
<path d="M366.071 324.627C366.077 319.981 364.411 315.488 361.379 311.969C361.676 311.925 361.949 311.777 362.147 311.55C362.345 311.324 362.455 311.034 362.458 310.733C362.456 310.393 362.319 310.067 362.078 309.827C361.836 309.588 361.51 309.453 361.17 309.453H332.024C331.707 309.457 331.403 309.58 331.171 309.798C330.94 310.015 330.798 310.311 330.774 310.628C330.75 310.944 330.846 311.258 331.041 311.508C331.237 311.758 331.52 311.925 331.833 311.978C329.926 314.192 328.544 316.807 327.788 319.629C327.032 322.451 326.923 325.407 327.467 328.278C328.012 331.148 329.197 333.859 330.934 336.208C332.671 338.557 334.915 340.484 337.5 341.846C337.218 341.991 336.994 342.227 336.862 342.515C336.731 342.803 336.701 343.127 336.776 343.435C336.852 343.743 337.028 344.016 337.278 344.211C337.528 344.406 337.836 344.511 338.153 344.51H355.033C355.406 344.507 355.763 344.358 356.027 344.094C356.291 343.83 356.44 343.473 356.443 343.099C356.442 342.841 356.37 342.589 356.237 342.368C356.104 342.147 355.913 341.967 355.685 341.846C358.82 340.193 361.444 337.716 363.274 334.681C365.104 331.647 366.071 328.17 366.071 324.627Z" fill="#263238"/>
</g>
<rect x="0.5" y="0.5" width="434" height="383" rx="9.5" stroke="#B0D3FC"/>
<defs>
<clipPath id="clip0_1_10447">
<rect width="435" height="384" rx="10" fill="white"/>
</clipPath>
</defs>
</svg>
